# xmcd
# 
# Track frame offsets:
#     150
#     18987
#     41070
#     64735
# 
# Disc length: 1134
# 
# Revision: 3
# Processed by: cddbd v1.5.2PL0 Copyright (c) Steve Scherf et al.
# Submitted via: fre:ac v1.0.31
# 
DISCID=2d046c04
DTITLE=Brandy - I Wanna Be Down
DYEAR=1995
DGENRE=R&B
TTITLE0=I Wanna Be Down [LP Edit]
TTITLE1=I Wanna Be Down [LP Version]
TTITLE2=I Wanna Be Down [Cool Out]
TTITLE3=I Wanna Be Down [Acappella]
EXTD=
EXTT0=
EXTT1=
EXTT2=
EXTT3=
PLAYORDER=
